REM DIRINDEX 1\2\6,1\2\7,1\2\8,1\3\9,1\3\10,1\3\11,1\4\12,1\4\13,1\4\14,1\5\15,1\5\16,1\5\17,1\5\18
REM DIRNAME folder01,folder02,folder03,folder04,folder05,folder06,folder07,folder08,folder09,folder10,folder11,folder12,folder13,folder14,folder15,folder16,folder17,folder18
TITLE ""
FILE "2Q_t_0755-0772.mp3" MP3
  TRACK 01 AUDIO
    TITLE "13:cjc019_3570"
    INDEX 01 00:00:00
  TRACK 02 AUDIO
    TITLE "0:"
    INDEX 01 00:01:24
  TRACK 03 AUDIO
    TITLE "14:cjc019_3571"
    INDEX 01 00:02:14
  TRACK 04 AUDIO
    TITLE "0:"
    INDEX 01 00:03:37
  TRACK 05 AUDIO
    TITLE "13:cjc019_3572"
    INDEX 01 00:04:17
  TRACK 06 AUDIO
    TITLE "0:"
    INDEX 01 00:05:36
  TRACK 07 AUDIO
    TITLE "14:cjc019_3573"
    INDEX 01 00:06:18
  TRACK 08 AUDIO
    TITLE "0:"
    INDEX 01 00:08:19
  TRACK 09 AUDIO
    TITLE "13:cjc019_3574"
    INDEX 01 00:09:02
  TRACK 10 AUDIO
    TITLE "0:"
    INDEX 01 00:10:57
  TRACK 11 AUDIO
    TITLE "14:cjc019_3575"
    INDEX 01 00:11:37
  TRACK 12 AUDIO
    TITLE "0:"
    INDEX 01 00:14:07
  TRACK 13 AUDIO
    TITLE "13:cjc019_3576"
    INDEX 01 00:14:66
  TRACK 14 AUDIO
    TITLE "0:"
    INDEX 01 00:16:02
  TRACK 15 AUDIO
    TITLE "14:cjc019_3577"
    INDEX 01 00:16:67
  TRACK 16 AUDIO
    TITLE "0:"
    INDEX 01 00:19:54
  TRACK 17 AUDIO
    TITLE "13:cjc019_3578"
    INDEX 01 00:20:32
  TRACK 18 AUDIO
    TITLE "0:"
    INDEX 01 00:21:51
  TRACK 19 AUDIO
    TITLE "14:cjc019_3579"
    INDEX 01 00:22:30
  TRACK 20 AUDIO
    TITLE "0:"
    INDEX 01 00:24:67
  TRACK 21 AUDIO
    TITLE "13:cjc019_3580"
    INDEX 01 00:25:45
  TRACK 22 AUDIO
    TITLE "0:"
    INDEX 01 00:26:69
  TRACK 23 AUDIO
    TITLE "14:cjc019_3581"
    INDEX 01 00:27:55
  TRACK 24 AUDIO
    TITLE "0:"
    INDEX 01 00:29:25
  TRACK 25 AUDIO
    TITLE "13:cjc019_3582"
    INDEX 01 00:30:03
  TRACK 26 AUDIO
    TITLE "0:"
    INDEX 01 00:31:18
  TRACK 27 AUDIO
    TITLE "14:cjc019_3583"
    INDEX 01 00:31:73
  TRACK 28 AUDIO
    TITLE "0:"
    INDEX 01 00:35:00
  TRACK 29 AUDIO
    TITLE "13:cjc019_3584"
    INDEX 01 00:35:55
  TRACK 30 AUDIO
    TITLE "0:"
    INDEX 01 00:36:68
  TRACK 31 AUDIO
    TITLE "14:cjc019_3585"
    INDEX 01 00:37:50
  TRACK 32 AUDIO
    TITLE "0:"
    INDEX 01 00:40:48
  TRACK 33 AUDIO
    TITLE "13:cjc019_3586"
    INDEX 01 00:41:22
  TRACK 34 AUDIO
    TITLE "0:"
    INDEX 01 00:42:37
  TRACK 35 AUDIO
    TITLE "14:cjc019_3587"
    INDEX 01 00:43:29
  TRACK 36 AUDIO
    TITLE "0:"
    INDEX 01 00:45:69
  TRACK 37 AUDIO
    TITLE "13:cjc019_3588"
    INDEX 01 00:46:47
  TRACK 38 AUDIO
    TITLE "0:"
    INDEX 01 00:48:02
  TRACK 39 AUDIO
    TITLE "14:cjc019_3589"
    INDEX 01 00:48:59
  TRACK 40 AUDIO
    TITLE "0:"
    INDEX 01 00:50:52
  TRACK 41 AUDIO
    TITLE "13:cjc019_3590"
    INDEX 01 00:51:28
  TRACK 42 AUDIO
    TITLE "0:"
    INDEX 01 00:52:43
  TRACK 43 AUDIO
    TITLE "14:cjc019_3591"
    INDEX 01 00:53:23
  TRACK 44 AUDIO
    TITLE "0:"
    INDEX 01 00:55:65
  TRACK 45 AUDIO
    TITLE "13:cjc019_3592"
    INDEX 01 00:56:39
  TRACK 46 AUDIO
    TITLE "0:"
    INDEX 01 00:57:56
  TRACK 47 AUDIO
    TITLE "14:cjc019_3593"
    INDEX 01 00:58:36
  TRACK 48 AUDIO
    TITLE "0:"
    INDEX 01 01:00:59
  TRACK 49 AUDIO
    TITLE "13:cjc019_3594"
    INDEX 01 01:01:36
  TRACK 50 AUDIO
    TITLE "0:"
    INDEX 01 01:02:40
  TRACK 51 AUDIO
    TITLE "14:cjc019_3595"
    INDEX 01 01:03:24
  TRACK 52 AUDIO
    TITLE "0:"
    INDEX 01 01:06:22
  TRACK 53 AUDIO
    TITLE "13:cjc019_3596"
    INDEX 01 01:07:02
  TRACK 54 AUDIO
    TITLE "0:"
    INDEX 01 01:08:35
  TRACK 55 AUDIO
    TITLE "14:cjc019_3597"
    INDEX 01 01:09:20
  TRACK 56 AUDIO
    TITLE "0:"
    INDEX 01 01:11:68
  TRACK 57 AUDIO
    TITLE "13:cjc019_3598"
    INDEX 01 01:12:42
  TRACK 58 AUDIO
    TITLE "0:"
    INDEX 01 01:13:63
  TRACK 59 AUDIO
    TITLE "14:cjc019_3599"
    INDEX 01 01:14:49
  TRACK 60 AUDIO
    TITLE "0:"
    INDEX 01 01:16:12
  TRACK 61 AUDIO
    TITLE "13:cjc019_3600"
    INDEX 01 01:16:65
  TRACK 62 AUDIO
    TITLE "0:"
    INDEX 01 01:18:09
  TRACK 63 AUDIO
    TITLE "14:cjc019_3601"
    INDEX 01 01:18:58
  TRACK 64 AUDIO
    TITLE "0:"
    INDEX 01 01:21:45
  TRACK 65 AUDIO
    TITLE "13:cjc019_3602"
    INDEX 01 01:22:17
  TRACK 66 AUDIO
    TITLE "0:"
    INDEX 01 01:23:46
  TRACK 67 AUDIO
    TITLE "14:cjc019_3603"
    INDEX 01 01:24:26
  TRACK 68 AUDIO
    TITLE "0:"
    INDEX 01 01:27:38
  TRACK 69 AUDIO
    TITLE "13:cjc019_3604"
    INDEX 01 01:28:16
  TRACK 70 AUDIO
    TITLE "0:"
    INDEX 01 01:29:39
  TRACK 71 AUDIO
    TITLE "14:cjc019_3605"
    INDEX 01 01:30:20
  TRACK 72 AUDIO
    TITLE "0:"
    INDEX 01 01:32:64
